<mxfile host="app.diagrams.net" agent="Mozilla/5.0 (X11; Linux x86_64; rv:131.0) Gecko/20100101 Firefox/131.0" version="24.7.17">
  <diagram name="Page-1" id="Hzn4R-oyL5aYrDYmP2z6">
    <mxGraphModel dx="3163" dy="3168" grid="1" gridSize="10" guides="1" tooltips="1" connect="1" arrows="1" fold="1" page="1" pageScale="1" pageWidth="1654" pageHeight="2336" math="0" shadow="0">
      <root>
        <mxCell id="0" />
        <mxCell id="1" parent="0" />
        <mxCell id="88NbN212qp_rHV_D2FG4-1" value="Escultores" style="html=1;whiteSpace=wrap;fillColor=#fff2cc;strokeColor=#d6b656;" parent="1" vertex="1">
          <mxGeometry x="460" y="210" width="110" height="50" as="geometry" />
        </mxCell>
        <mxCell id="88NbN212qp_rHV_D2FG4-3" value="Imágenes" style="html=1;whiteSpace=wrap;strokeWidth=4;fillColor=#fff2cc;strokeColor=#d6b656;rounded=0;shadow=0;glass=0;" parent="1" vertex="1">
          <mxGeometry x="280" y="-220" width="110" height="50" as="geometry" />
        </mxCell>
        <mxCell id="88NbN212qp_rHV_D2FG4-4" value="Eventos" style="html=1;whiteSpace=wrap;fillColor=#fff2cc;strokeColor=#d6b656;" parent="1" vertex="1">
          <mxGeometry x="630" y="60" width="110" height="50" as="geometry" />
        </mxCell>
        <mxCell id="88NbN212qp_rHV_D2FG4-5" value="Obras" style="html=1;whiteSpace=wrap;fillColor=#fff2cc;strokeColor=#d6b656;" parent="1" vertex="1">
          <mxGeometry x="280" y="60" width="110" height="50" as="geometry" />
        </mxCell>
        <mxCell id="88NbN212qp_rHV_D2FG4-6" value="tiene" style="strokeWidth=1;html=1;shape=mxgraph.flowchart.decision;whiteSpace=wrap;fillColor=#d5e8d4;strokeColor=#82b366;" parent="1" vertex="1">
          <mxGeometry x="480" y="60" width="60" height="50" as="geometry" />
        </mxCell>
        <mxCell id="88NbN212qp_rHV_D2FG4-7" value="" style="endArrow=classic;html=1;rounded=0;strokeWidth=3;" parent="1" source="88NbN212qp_rHV_D2FG4-5" target="88NbN212qp_rHV_D2FG4-6" edge="1">
          <mxGeometry width="50" height="50" relative="1" as="geometry">
            <mxPoint x="400" y="100" as="sourcePoint" />
            <mxPoint x="450" y="50" as="targetPoint" />
          </mxGeometry>
        </mxCell>
        <mxCell id="88NbN212qp_rHV_D2FG4-9" value="" style="endArrow=none;html=1;rounded=0;strokeWidth=3;" parent="1" source="88NbN212qp_rHV_D2FG4-6" target="88NbN212qp_rHV_D2FG4-4" edge="1">
          <mxGeometry width="50" height="50" relative="1" as="geometry">
            <mxPoint x="550" y="100" as="sourcePoint" />
            <mxPoint x="600" y="50" as="targetPoint" />
          </mxGeometry>
        </mxCell>
        <mxCell id="88NbN212qp_rHV_D2FG4-10" value="participa" style="strokeWidth=1;html=1;shape=mxgraph.flowchart.decision;whiteSpace=wrap;fillColor=#d5e8d4;strokeColor=#82b366;" parent="1" vertex="1">
          <mxGeometry x="652.5" y="205" width="65" height="60" as="geometry" />
        </mxCell>
        <mxCell id="88NbN212qp_rHV_D2FG4-11" value="" style="endArrow=none;html=1;rounded=0;strokeWidth=3;" parent="1" source="88NbN212qp_rHV_D2FG4-1" target="88NbN212qp_rHV_D2FG4-10" edge="1">
          <mxGeometry width="50" height="50" relative="1" as="geometry">
            <mxPoint x="465" y="210" as="sourcePoint" />
            <mxPoint x="555" y="210" as="targetPoint" />
          </mxGeometry>
        </mxCell>
        <mxCell id="88NbN212qp_rHV_D2FG4-12" value="" style="endArrow=none;html=1;rounded=0;strokeWidth=3;" parent="1" source="88NbN212qp_rHV_D2FG4-10" target="88NbN212qp_rHV_D2FG4-4" edge="1">
          <mxGeometry width="50" height="50" relative="1" as="geometry">
            <mxPoint x="560" y="190" as="sourcePoint" />
            <mxPoint x="620" y="165" as="targetPoint" />
          </mxGeometry>
        </mxCell>
        <mxCell id="88NbN212qp_rHV_D2FG4-13" value="crea" style="strokeWidth=1;html=1;shape=mxgraph.flowchart.decision;whiteSpace=wrap;fillColor=#d5e8d4;strokeColor=#82b366;" parent="1" vertex="1">
          <mxGeometry x="305" y="210" width="60" height="50" as="geometry" />
        </mxCell>
        <mxCell id="88NbN212qp_rHV_D2FG4-14" value="" style="endArrow=none;html=1;rounded=0;strokeWidth=3;" parent="1" source="88NbN212qp_rHV_D2FG4-13" target="88NbN212qp_rHV_D2FG4-1" edge="1">
          <mxGeometry width="50" height="50" relative="1" as="geometry">
            <mxPoint x="470" y="180" as="sourcePoint" />
            <mxPoint x="560" y="180" as="targetPoint" />
          </mxGeometry>
        </mxCell>
        <mxCell id="88NbN212qp_rHV_D2FG4-15" value="" style="endArrow=classic;html=1;rounded=0;strokeWidth=3;" parent="1" source="88NbN212qp_rHV_D2FG4-5" target="88NbN212qp_rHV_D2FG4-13" edge="1">
          <mxGeometry width="50" height="50" relative="1" as="geometry">
            <mxPoint x="380" y="190" as="sourcePoint" />
            <mxPoint x="470" y="190" as="targetPoint" />
          </mxGeometry>
        </mxCell>
        <mxCell id="88NbN212qp_rHV_D2FG4-17" value="compuesta" style="strokeWidth=4;html=1;shape=mxgraph.flowchart.decision;whiteSpace=wrap;fillColor=#d5e8d4;strokeColor=#82b366;" parent="1" vertex="1">
          <mxGeometry x="290" y="-120" width="90" height="70" as="geometry" />
        </mxCell>
        <mxCell id="88NbN212qp_rHV_D2FG4-19" value="Usuarios" style="html=1;whiteSpace=wrap;fillColor=#fff2cc;strokeColor=#d6b656;" parent="1" vertex="1">
          <mxGeometry x="-110" y="60" width="110" height="50" as="geometry" />
        </mxCell>
        <mxCell id="88NbN212qp_rHV_D2FG4-20" value="vota" style="strokeWidth=1;html=1;shape=mxgraph.flowchart.decision;whiteSpace=wrap;fillColor=#d5e8d4;strokeColor=#82b366;" parent="1" vertex="1">
          <mxGeometry x="65" y="60" width="60" height="50" as="geometry" />
        </mxCell>
        <mxCell id="88NbN212qp_rHV_D2FG4-21" value="" style="endArrow=none;html=1;rounded=0;strokeWidth=1;" parent="1" source="88NbN212qp_rHV_D2FG4-19" target="88NbN212qp_rHV_D2FG4-20" edge="1">
          <mxGeometry width="50" height="50" relative="1" as="geometry">
            <mxPoint x="70" y="245" as="sourcePoint" />
            <mxPoint x="165" y="245" as="targetPoint" />
          </mxGeometry>
        </mxCell>
        <mxCell id="88NbN212qp_rHV_D2FG4-22" value="" style="endArrow=none;html=1;rounded=0;strokeWidth=1;" parent="1" source="88NbN212qp_rHV_D2FG4-20" target="88NbN212qp_rHV_D2FG4-5" edge="1">
          <mxGeometry width="50" height="50" relative="1" as="geometry">
            <mxPoint x="280" y="150" as="sourcePoint" />
            <mxPoint x="311" y="132" as="targetPoint" />
          </mxGeometry>
        </mxCell>
        <mxCell id="88NbN212qp_rHV_D2FG4-24" value="" style="endArrow=none;html=1;rounded=0;strokeWidth=3;" parent="1" source="88NbN212qp_rHV_D2FG4-5" target="88NbN212qp_rHV_D2FG4-17" edge="1">
          <mxGeometry width="50" height="50" relative="1" as="geometry">
            <mxPoint x="375" y="285" as="sourcePoint" />
            <mxPoint x="470" y="285" as="targetPoint" />
          </mxGeometry>
        </mxCell>
        <mxCell id="88NbN212qp_rHV_D2FG4-25" value="" style="endArrow=classic;html=1;rounded=0;strokeWidth=3;" parent="1" source="88NbN212qp_rHV_D2FG4-3" target="88NbN212qp_rHV_D2FG4-17" edge="1">
          <mxGeometry width="50" height="50" relative="1" as="geometry">
            <mxPoint x="345" y="60" as="sourcePoint" />
            <mxPoint x="345" y="200" as="targetPoint" />
          </mxGeometry>
        </mxCell>
        <mxCell id="88NbN212qp_rHV_D2FG4-32" value="" style="endArrow=none;html=1;rounded=0;strokeWidth=1;" parent="1" source="88NbN212qp_rHV_D2FG4-20" target="QKR319431u4QrgoCeDAc-1" edge="1">
          <mxGeometry width="50" height="50" relative="1" as="geometry">
            <mxPoint x="135" y="95" as="sourcePoint" />
            <mxPoint x="95" y="10" as="targetPoint" />
          </mxGeometry>
        </mxCell>
        <mxCell id="QKR319431u4QrgoCeDAc-1" value="&lt;font style=&quot;font-size: 10px;&quot;&gt;puntaje&lt;/font&gt;" style="ellipse;whiteSpace=wrap;html=1;fillColor=#f5f5f5;strokeColor=#666666;gradientColor=#91E1E7;" vertex="1" parent="1">
          <mxGeometry x="50" y="-10" width="90" height="40" as="geometry" />
        </mxCell>
        <mxCell id="QKR319431u4QrgoCeDAc-2" value="&lt;font style=&quot;font-size: 10px;&quot;&gt;fecha_inicio&lt;/font&gt;" style="ellipse;whiteSpace=wrap;html=1;fillColor=#f5f5f5;strokeColor=#666666;gradientColor=#91E1E7;" vertex="1" parent="1">
          <mxGeometry x="640" y="-30" width="90" height="40" as="geometry" />
        </mxCell>
        <mxCell id="QKR319431u4QrgoCeDAc-3" value="&lt;font style=&quot;font-size: 10px;&quot;&gt;fecha_fin&lt;/font&gt;" style="ellipse;whiteSpace=wrap;html=1;fillColor=#f5f5f5;strokeColor=#666666;gradientColor=#91E1E7;" vertex="1" parent="1">
          <mxGeometry x="730" width="90" height="40" as="geometry" />
        </mxCell>
        <mxCell id="QKR319431u4QrgoCeDAc-4" value="&lt;font style=&quot;font-size: 10px;&quot;&gt;id_evento&lt;/font&gt;" style="ellipse;whiteSpace=wrap;html=1;fontStyle=4;fillColor=#f5f5f5;strokeColor=#666666;gradientColor=#91E1E7;" vertex="1" parent="1">
          <mxGeometry x="780" y="50" width="90" height="40" as="geometry" />
        </mxCell>
        <mxCell id="QKR319431u4QrgoCeDAc-5" value="&lt;font style=&quot;font-size: 10px;&quot;&gt;descripción&lt;/font&gt;" style="ellipse;whiteSpace=wrap;html=1;fillColor=#f5f5f5;strokeColor=#666666;gradientColor=#91E1E7;" vertex="1" parent="1">
          <mxGeometry x="770" y="100" width="90" height="40" as="geometry" />
        </mxCell>
        <mxCell id="QKR319431u4QrgoCeDAc-6" value="" style="endArrow=none;html=1;rounded=0;" edge="1" parent="1" source="88NbN212qp_rHV_D2FG4-4" target="QKR319431u4QrgoCeDAc-2">
          <mxGeometry width="50" height="50" relative="1" as="geometry">
            <mxPoint x="430" y="100" as="sourcePoint" />
            <mxPoint x="480" y="50" as="targetPoint" />
          </mxGeometry>
        </mxCell>
        <mxCell id="QKR319431u4QrgoCeDAc-7" value="&lt;font style=&quot;font-size: 10px;&quot;&gt;lugar&lt;/font&gt;" style="ellipse;whiteSpace=wrap;html=1;fillColor=#f5f5f5;strokeColor=#666666;gradientColor=#91E1E7;" vertex="1" parent="1">
          <mxGeometry x="710" y="140" width="90" height="40" as="geometry" />
        </mxCell>
        <mxCell id="QKR319431u4QrgoCeDAc-8" value="&lt;font style=&quot;font-size: 10px;&quot;&gt;temática&lt;/font&gt;" style="ellipse;whiteSpace=wrap;html=1;fillColor=#f5f5f5;strokeColor=#666666;gradientColor=#91E1E7;" vertex="1" parent="1">
          <mxGeometry x="550" width="90" height="40" as="geometry" />
        </mxCell>
        <mxCell id="QKR319431u4QrgoCeDAc-9" value="" style="endArrow=none;html=1;rounded=0;" edge="1" parent="1" source="QKR319431u4QrgoCeDAc-8" target="88NbN212qp_rHV_D2FG4-4">
          <mxGeometry width="50" height="50" relative="1" as="geometry">
            <mxPoint x="430" y="100" as="sourcePoint" />
            <mxPoint x="480" y="50" as="targetPoint" />
          </mxGeometry>
        </mxCell>
        <mxCell id="QKR319431u4QrgoCeDAc-10" value="" style="endArrow=none;html=1;rounded=0;" edge="1" parent="1" source="88NbN212qp_rHV_D2FG4-4" target="QKR319431u4QrgoCeDAc-3">
          <mxGeometry width="50" height="50" relative="1" as="geometry">
            <mxPoint x="430" y="100" as="sourcePoint" />
            <mxPoint x="480" y="50" as="targetPoint" />
          </mxGeometry>
        </mxCell>
        <mxCell id="QKR319431u4QrgoCeDAc-11" value="" style="endArrow=none;html=1;rounded=0;" edge="1" parent="1" source="88NbN212qp_rHV_D2FG4-4" target="QKR319431u4QrgoCeDAc-4">
          <mxGeometry width="50" height="50" relative="1" as="geometry">
            <mxPoint x="715" y="70" as="sourcePoint" />
            <mxPoint x="740" y="39" as="targetPoint" />
          </mxGeometry>
        </mxCell>
        <mxCell id="QKR319431u4QrgoCeDAc-12" value="" style="endArrow=none;html=1;rounded=0;" edge="1" parent="1" source="88NbN212qp_rHV_D2FG4-4" target="QKR319431u4QrgoCeDAc-5">
          <mxGeometry width="50" height="50" relative="1" as="geometry">
            <mxPoint x="750" y="80" as="sourcePoint" />
            <mxPoint x="786" y="70" as="targetPoint" />
          </mxGeometry>
        </mxCell>
        <mxCell id="QKR319431u4QrgoCeDAc-13" value="" style="endArrow=none;html=1;rounded=0;" edge="1" parent="1" source="QKR319431u4QrgoCeDAc-7" target="88NbN212qp_rHV_D2FG4-4">
          <mxGeometry width="50" height="50" relative="1" as="geometry">
            <mxPoint x="760" y="90" as="sourcePoint" />
            <mxPoint x="796" y="80" as="targetPoint" />
          </mxGeometry>
        </mxCell>
        <mxCell id="QKR319431u4QrgoCeDAc-14" value="&lt;div style=&quot;font-size: 11px;&quot;&gt;&lt;font style=&quot;font-size: 10px;&quot;&gt;nombre&lt;/font&gt;&lt;/div&gt;" style="ellipse;whiteSpace=wrap;html=1;fillColor=#f5f5f5;strokeColor=#666666;gradientColor=#91E1E7;" vertex="1" parent="1">
          <mxGeometry x="350" y="265" width="90" height="40" as="geometry" />
        </mxCell>
        <mxCell id="QKR319431u4QrgoCeDAc-15" value="&lt;font style=&quot;font-size: 10px;&quot;&gt;biografía&lt;/font&gt;" style="ellipse;whiteSpace=wrap;html=1;fillColor=#f5f5f5;strokeColor=#666666;gradientColor=#91E1E7;" vertex="1" parent="1">
          <mxGeometry x="350" y="380" width="90" height="40" as="geometry" />
        </mxCell>
        <mxCell id="QKR319431u4QrgoCeDAc-18" value="&lt;font style=&quot;font-size: 10px;&quot;&gt;apellido&lt;/font&gt;" style="ellipse;whiteSpace=wrap;html=1;fillColor=#f5f5f5;strokeColor=#666666;gradientColor=#91E1E7;" vertex="1" parent="1">
          <mxGeometry x="600" y="380" width="90" height="40" as="geometry" />
        </mxCell>
        <mxCell id="QKR319431u4QrgoCeDAc-16" value="&lt;font style=&quot;font-size: 10px;&quot;&gt;email&lt;/font&gt;" style="ellipse;whiteSpace=wrap;html=1;fillColor=#f5f5f5;strokeColor=#666666;gradientColor=#91E1E7;" vertex="1" parent="1">
          <mxGeometry x="335" y="320" width="90" height="40" as="geometry" />
        </mxCell>
        <mxCell id="QKR319431u4QrgoCeDAc-17" value="&lt;font style=&quot;font-size: 10px;&quot;&gt;teléfono&lt;/font&gt;" style="ellipse;whiteSpace=wrap;html=1;fillColor=#f5f5f5;strokeColor=#666666;gradientColor=#91E1E7;" vertex="1" parent="1">
          <mxGeometry x="410" y="430" width="90" height="40" as="geometry" />
        </mxCell>
        <mxCell id="QKR319431u4QrgoCeDAc-19" value="&lt;font style=&quot;font-size: 10px;&quot;&gt;nacionalidad&lt;/font&gt;" style="ellipse;whiteSpace=wrap;html=1;fillColor=#f5f5f5;strokeColor=#666666;gradientColor=#91E1E7;" vertex="1" parent="1">
          <mxGeometry x="600" y="265" width="90" height="40" as="geometry" />
        </mxCell>
        <mxCell id="QKR319431u4QrgoCeDAc-20" value="&lt;font style=&quot;font-size: 10px;&quot;&gt;fecha_nacimiento&lt;/font&gt;" style="ellipse;whiteSpace=wrap;html=1;fillColor=#f5f5f5;strokeColor=#666666;gradientColor=#91E1E7;" vertex="1" parent="1">
          <mxGeometry x="610" y="320" width="90" height="40" as="geometry" />
        </mxCell>
        <mxCell id="QKR319431u4QrgoCeDAc-21" value="&lt;font style=&quot;font-size: 10px;&quot;&gt;edad&lt;/font&gt;" style="ellipse;whiteSpace=wrap;html=1;dashed=1;fillColor=#f5f5f5;strokeColor=#666666;gradientColor=#91E1E7;" vertex="1" parent="1">
          <mxGeometry x="540" y="430" width="90" height="40" as="geometry" />
        </mxCell>
        <mxCell id="QKR319431u4QrgoCeDAc-22" value="&lt;font style=&quot;font-size: 10px;&quot;&gt;foto_perfil&lt;/font&gt;" style="ellipse;whiteSpace=wrap;html=1;fillColor=#f5f5f5;strokeColor=#666666;gradientColor=#91E1E7;" vertex="1" parent="1">
          <mxGeometry x="470" y="480" width="90" height="40" as="geometry" />
        </mxCell>
        <mxCell id="QKR319431u4QrgoCeDAc-23" value="" style="endArrow=none;html=1;rounded=0;" edge="1" parent="1" source="QKR319431u4QrgoCeDAc-19" target="88NbN212qp_rHV_D2FG4-1">
          <mxGeometry width="50" height="50" relative="1" as="geometry">
            <mxPoint x="770" y="370" as="sourcePoint" />
            <mxPoint x="725" y="120" as="targetPoint" />
          </mxGeometry>
        </mxCell>
        <mxCell id="QKR319431u4QrgoCeDAc-24" value="" style="endArrow=none;html=1;rounded=0;" edge="1" parent="1" source="88NbN212qp_rHV_D2FG4-1" target="QKR319431u4QrgoCeDAc-20">
          <mxGeometry width="50" height="50" relative="1" as="geometry">
            <mxPoint x="611" y="277" as="sourcePoint" />
            <mxPoint x="580" y="266" as="targetPoint" />
          </mxGeometry>
        </mxCell>
        <mxCell id="QKR319431u4QrgoCeDAc-25" value="" style="endArrow=none;html=1;rounded=0;" edge="1" parent="1" source="QKR319431u4QrgoCeDAc-18" target="88NbN212qp_rHV_D2FG4-1">
          <mxGeometry width="50" height="50" relative="1" as="geometry">
            <mxPoint x="556" y="270" as="sourcePoint" />
            <mxPoint x="633" y="332" as="targetPoint" />
          </mxGeometry>
        </mxCell>
        <mxCell id="QKR319431u4QrgoCeDAc-26" value="" style="endArrow=none;html=1;rounded=0;" edge="1" parent="1" source="88NbN212qp_rHV_D2FG4-1" target="QKR319431u4QrgoCeDAc-22">
          <mxGeometry width="50" height="50" relative="1" as="geometry">
            <mxPoint x="640" y="391" as="sourcePoint" />
            <mxPoint x="545" y="270" as="targetPoint" />
          </mxGeometry>
        </mxCell>
        <mxCell id="QKR319431u4QrgoCeDAc-27" value="" style="endArrow=none;html=1;rounded=0;" edge="1" parent="1" source="QKR319431u4QrgoCeDAc-14" target="88NbN212qp_rHV_D2FG4-1">
          <mxGeometry width="50" height="50" relative="1" as="geometry">
            <mxPoint x="525" y="270" as="sourcePoint" />
            <mxPoint x="525" y="340" as="targetPoint" />
          </mxGeometry>
        </mxCell>
        <mxCell id="QKR319431u4QrgoCeDAc-28" value="" style="endArrow=none;html=1;rounded=0;" edge="1" parent="1" source="QKR319431u4QrgoCeDAc-16" target="88NbN212qp_rHV_D2FG4-1">
          <mxGeometry width="50" height="50" relative="1" as="geometry">
            <mxPoint x="438" y="281" as="sourcePoint" />
            <mxPoint x="470" y="268" as="targetPoint" />
          </mxGeometry>
        </mxCell>
        <mxCell id="QKR319431u4QrgoCeDAc-29" value="" style="endArrow=none;html=1;rounded=0;" edge="1" parent="1" source="QKR319431u4QrgoCeDAc-15" target="88NbN212qp_rHV_D2FG4-1">
          <mxGeometry width="50" height="50" relative="1" as="geometry">
            <mxPoint x="448" y="291" as="sourcePoint" />
            <mxPoint x="480" y="278" as="targetPoint" />
          </mxGeometry>
        </mxCell>
        <mxCell id="QKR319431u4QrgoCeDAc-30" value="" style="endArrow=none;html=1;rounded=0;" edge="1" parent="1" source="QKR319431u4QrgoCeDAc-17" target="88NbN212qp_rHV_D2FG4-1">
          <mxGeometry width="50" height="50" relative="1" as="geometry">
            <mxPoint x="419" y="391" as="sourcePoint" />
            <mxPoint x="507" y="270" as="targetPoint" />
          </mxGeometry>
        </mxCell>
        <mxCell id="QKR319431u4QrgoCeDAc-31" value="" style="endArrow=none;html=1;rounded=0;" edge="1" parent="1" source="QKR319431u4QrgoCeDAc-21" target="88NbN212qp_rHV_D2FG4-1">
          <mxGeometry width="50" height="50" relative="1" as="geometry">
            <mxPoint x="429" y="401" as="sourcePoint" />
            <mxPoint x="517" y="280" as="targetPoint" />
          </mxGeometry>
        </mxCell>
        <mxCell id="QKR319431u4QrgoCeDAc-32" value="&lt;font style=&quot;font-size: 10px;&quot;&gt;id_escultor&lt;/font&gt;" style="ellipse;whiteSpace=wrap;html=1;fontStyle=4;fillColor=#f5f5f5;strokeColor=#666666;gradientColor=#91E1E7;" vertex="1" parent="1">
          <mxGeometry x="470" y="150" width="90" height="40" as="geometry" />
        </mxCell>
        <mxCell id="QKR319431u4QrgoCeDAc-33" value="" style="endArrow=none;html=1;rounded=0;" edge="1" parent="1" source="88NbN212qp_rHV_D2FG4-1" target="QKR319431u4QrgoCeDAc-32">
          <mxGeometry width="50" height="50" relative="1" as="geometry">
            <mxPoint x="410" y="260" as="sourcePoint" />
            <mxPoint x="460" y="210" as="targetPoint" />
          </mxGeometry>
        </mxCell>
        <mxCell id="QKR319431u4QrgoCeDAc-35" value="&lt;u&gt;&lt;font style=&quot;font-size: 10px;&quot;&gt;id_obra&lt;/font&gt;&lt;/u&gt;" style="ellipse;whiteSpace=wrap;html=1;fillColor=#f5f5f5;strokeColor=#666666;gradientColor=#91E1E7;" vertex="1" parent="1">
          <mxGeometry x="230" y="-20" width="90" height="40" as="geometry" />
        </mxCell>
        <mxCell id="QKR319431u4QrgoCeDAc-36" value="&lt;font style=&quot;font-size: 10px;&quot;&gt;descripción&lt;/font&gt;" style="ellipse;whiteSpace=wrap;html=1;fillColor=#f5f5f5;strokeColor=#666666;gradientColor=#91E1E7;" vertex="1" parent="1">
          <mxGeometry x="230" y="150" width="90" height="40" as="geometry" />
        </mxCell>
        <mxCell id="QKR319431u4QrgoCeDAc-37" value="&lt;font style=&quot;font-size: 10px;&quot;&gt;fecha_creación&lt;/font&gt;" style="ellipse;whiteSpace=wrap;html=1;fillColor=#f5f5f5;strokeColor=#666666;gradientColor=#91E1E7;" vertex="1" parent="1">
          <mxGeometry x="350" width="90" height="40" as="geometry" />
        </mxCell>
        <mxCell id="QKR319431u4QrgoCeDAc-38" value="&lt;font style=&quot;font-size: 10px;&quot;&gt;material&lt;/font&gt;" style="ellipse;whiteSpace=wrap;html=1;fillColor=#f5f5f5;strokeColor=#666666;gradientColor=#91E1E7;" vertex="1" parent="1">
          <mxGeometry x="180" y="30" width="90" height="40" as="geometry" />
        </mxCell>
        <mxCell id="QKR319431u4QrgoCeDAc-39" value="&lt;div&gt;&lt;font style=&quot;font-size: 10px;&quot;&gt;estilo&lt;/font&gt;&lt;/div&gt;" style="ellipse;whiteSpace=wrap;html=1;fillColor=#f5f5f5;strokeColor=#666666;gradientColor=#91E1E7;" vertex="1" parent="1">
          <mxGeometry x="180" y="100" width="90" height="40" as="geometry" />
        </mxCell>
        <mxCell id="QKR319431u4QrgoCeDAc-40" value="" style="endArrow=none;html=1;rounded=0;fontFamily=Helvetica;fontSize=12;fontColor=default;" edge="1" parent="1" source="88NbN212qp_rHV_D2FG4-5" target="QKR319431u4QrgoCeDAc-35">
          <mxGeometry width="50" height="50" relative="1" as="geometry">
            <mxPoint x="280" y="110" as="sourcePoint" />
            <mxPoint x="330" y="60" as="targetPoint" />
          </mxGeometry>
        </mxCell>
        <mxCell id="QKR319431u4QrgoCeDAc-41" value="" style="endArrow=none;html=1;rounded=0;fontFamily=Helvetica;fontSize=12;fontColor=default;" edge="1" parent="1" source="88NbN212qp_rHV_D2FG4-5" target="QKR319431u4QrgoCeDAc-37">
          <mxGeometry width="50" height="50" relative="1" as="geometry">
            <mxPoint x="327" y="70" as="sourcePoint" />
            <mxPoint x="299" y="29" as="targetPoint" />
          </mxGeometry>
        </mxCell>
        <mxCell id="QKR319431u4QrgoCeDAc-42" value="" style="endArrow=none;html=1;rounded=0;fontFamily=Helvetica;fontSize=12;fontColor=default;" edge="1" parent="1" source="88NbN212qp_rHV_D2FG4-5" target="QKR319431u4QrgoCeDAc-38">
          <mxGeometry width="50" height="50" relative="1" as="geometry">
            <mxPoint x="366" y="70" as="sourcePoint" />
            <mxPoint x="399" y="29" as="targetPoint" />
          </mxGeometry>
        </mxCell>
        <mxCell id="QKR319431u4QrgoCeDAc-43" value="" style="endArrow=none;html=1;rounded=0;fontFamily=Helvetica;fontSize=12;fontColor=default;" edge="1" parent="1" source="88NbN212qp_rHV_D2FG4-5" target="QKR319431u4QrgoCeDAc-39">
          <mxGeometry width="50" height="50" relative="1" as="geometry">
            <mxPoint x="290" y="77" as="sourcePoint" />
            <mxPoint x="272" y="72" as="targetPoint" />
          </mxGeometry>
        </mxCell>
        <mxCell id="QKR319431u4QrgoCeDAc-44" value="" style="endArrow=none;html=1;rounded=0;fontFamily=Helvetica;fontSize=12;fontColor=default;" edge="1" parent="1" source="88NbN212qp_rHV_D2FG4-5" target="QKR319431u4QrgoCeDAc-36">
          <mxGeometry width="50" height="50" relative="1" as="geometry">
            <mxPoint x="290" y="113" as="sourcePoint" />
            <mxPoint x="272" y="118" as="targetPoint" />
          </mxGeometry>
        </mxCell>
        <mxCell id="QKR319431u4QrgoCeDAc-46" value="&lt;font style=&quot;font-size: 10px;&quot;&gt;calificación&lt;/font&gt;" style="ellipse;whiteSpace=wrap;html=1;fillColor=#f5f5f5;strokeColor=#666666;gradientColor=#91E1E7;dashed=1;" vertex="1" parent="1">
          <mxGeometry x="350" y="150" width="90" height="40" as="geometry" />
        </mxCell>
        <mxCell id="QKR319431u4QrgoCeDAc-47" value="" style="endArrow=none;html=1;rounded=0;fontFamily=Helvetica;fontSize=12;fontColor=default;" edge="1" parent="1" source="88NbN212qp_rHV_D2FG4-5" target="QKR319431u4QrgoCeDAc-46">
          <mxGeometry width="50" height="50" relative="1" as="geometry">
            <mxPoint x="368" y="70" as="sourcePoint" />
            <mxPoint x="388" y="48" as="targetPoint" />
          </mxGeometry>
        </mxCell>
        <mxCell id="QKR319431u4QrgoCeDAc-48" value="&lt;div&gt;&lt;font style=&quot;font-size: 10px;&quot;&gt;id_imagen&lt;/font&gt;&lt;/div&gt;" style="ellipse;whiteSpace=wrap;html=1;fillColor=#f5f5f5;strokeColor=#666666;gradientColor=#91E1E7;" vertex="1" parent="1">
          <mxGeometry x="230" y="-290" width="90" height="40" as="geometry" />
        </mxCell>
        <mxCell id="QKR319431u4QrgoCeDAc-51" value="&lt;font style=&quot;font-size: 10px;&quot;&gt;fotografía&lt;br&gt;&lt;/font&gt;" style="ellipse;whiteSpace=wrap;html=1;fillColor=#f5f5f5;strokeColor=#666666;gradientColor=#91E1E7;" vertex="1" parent="1">
          <mxGeometry x="350" y="-290" width="90" height="40" as="geometry" />
        </mxCell>
        <mxCell id="QKR319431u4QrgoCeDAc-52" value="" style="endArrow=none;html=1;rounded=0;fontFamily=Helvetica;fontSize=12;fontColor=default;" edge="1" parent="1" source="QKR319431u4QrgoCeDAc-48" target="88NbN212qp_rHV_D2FG4-3">
          <mxGeometry width="50" height="50" relative="1" as="geometry">
            <mxPoint x="300" y="-110" as="sourcePoint" />
            <mxPoint x="350" y="-160" as="targetPoint" />
          </mxGeometry>
        </mxCell>
        <mxCell id="QKR319431u4QrgoCeDAc-53" value="" style="endArrow=none;html=1;rounded=0;fontFamily=Helvetica;fontSize=12;fontColor=default;" edge="1" parent="1" source="88NbN212qp_rHV_D2FG4-3" target="QKR319431u4QrgoCeDAc-51">
          <mxGeometry width="50" height="50" relative="1" as="geometry">
            <mxPoint x="300" y="-110" as="sourcePoint" />
            <mxPoint x="350" y="-160" as="targetPoint" />
          </mxGeometry>
        </mxCell>
        <mxCell id="QKR319431u4QrgoCeDAc-55" value="" style="endArrow=none;dashed=1;html=1;rounded=0;fontFamily=Helvetica;fontSize=12;fontColor=default;" edge="1" parent="1">
          <mxGeometry width="50" height="50" relative="1" as="geometry">
            <mxPoint x="250" y="-260" as="sourcePoint" />
            <mxPoint x="300" y="-260" as="targetPoint" />
          </mxGeometry>
        </mxCell>
        <mxCell id="QKR319431u4QrgoCeDAc-56" value="id_usuario" style="ellipse;whiteSpace=wrap;html=1;fillColor=#f5f5f5;strokeColor=#666666;gradientColor=#91E1E7;fontStyle=4" vertex="1" parent="1">
          <mxGeometry x="-110" y="-30" width="90" height="40" as="geometry" />
        </mxCell>
        <mxCell id="QKR319431u4QrgoCeDAc-57" value="email" style="ellipse;whiteSpace=wrap;html=1;fillColor=#f5f5f5;strokeColor=#666666;gradientColor=#91E1E7;" vertex="1" parent="1">
          <mxGeometry x="-210" width="90" height="40" as="geometry" />
        </mxCell>
        <mxCell id="QKR319431u4QrgoCeDAc-59" value="contraseña" style="ellipse;whiteSpace=wrap;html=1;fillColor=#f5f5f5;strokeColor=#666666;gradientColor=#91E1E7;" vertex="1" parent="1">
          <mxGeometry x="-230" y="60" width="90" height="40" as="geometry" />
        </mxCell>
        <mxCell id="QKR319431u4QrgoCeDAc-60" value="nickname" style="ellipse;whiteSpace=wrap;html=1;fillColor=#f5f5f5;strokeColor=#666666;gradientColor=#91E1E7;" vertex="1" parent="1">
          <mxGeometry x="-210" y="120" width="90" height="40" as="geometry" />
        </mxCell>
        <mxCell id="QKR319431u4QrgoCeDAc-61" value="rol" style="ellipse;whiteSpace=wrap;html=1;fillColor=#f5f5f5;strokeColor=#666666;gradientColor=#91E1E7;" vertex="1" parent="1">
          <mxGeometry x="-100" y="150" width="90" height="40" as="geometry" />
        </mxCell>
        <mxCell id="QKR319431u4QrgoCeDAc-62" value="" style="endArrow=none;html=1;rounded=0;fontFamily=Helvetica;fontSize=12;fontColor=default;" edge="1" parent="1" source="88NbN212qp_rHV_D2FG4-19" target="QKR319431u4QrgoCeDAc-56">
          <mxGeometry width="50" height="50" relative="1" as="geometry">
            <mxPoint x="60" y="170" as="sourcePoint" />
            <mxPoint x="110" y="120" as="targetPoint" />
          </mxGeometry>
        </mxCell>
        <mxCell id="QKR319431u4QrgoCeDAc-63" value="" style="endArrow=none;html=1;rounded=0;fontFamily=Helvetica;fontSize=12;fontColor=default;" edge="1" parent="1" source="88NbN212qp_rHV_D2FG4-19" target="QKR319431u4QrgoCeDAc-57">
          <mxGeometry width="50" height="50" relative="1" as="geometry">
            <mxPoint x="-48" y="70" as="sourcePoint" />
            <mxPoint x="-53" y="20" as="targetPoint" />
          </mxGeometry>
        </mxCell>
        <mxCell id="QKR319431u4QrgoCeDAc-64" value="" style="endArrow=none;html=1;rounded=0;fontFamily=Helvetica;fontSize=12;fontColor=default;" edge="1" parent="1" source="88NbN212qp_rHV_D2FG4-19" target="QKR319431u4QrgoCeDAc-59">
          <mxGeometry width="50" height="50" relative="1" as="geometry">
            <mxPoint x="-87" y="70" as="sourcePoint" />
            <mxPoint x="-128" y="46" as="targetPoint" />
          </mxGeometry>
        </mxCell>
        <mxCell id="QKR319431u4QrgoCeDAc-65" value="" style="endArrow=none;html=1;rounded=0;fontFamily=Helvetica;fontSize=12;fontColor=default;" edge="1" parent="1" source="88NbN212qp_rHV_D2FG4-19" target="QKR319431u4QrgoCeDAc-60">
          <mxGeometry width="50" height="50" relative="1" as="geometry">
            <mxPoint x="-100" y="93" as="sourcePoint" />
            <mxPoint x="-130" y="92" as="targetPoint" />
          </mxGeometry>
        </mxCell>
        <mxCell id="QKR319431u4QrgoCeDAc-66" value="" style="endArrow=none;html=1;rounded=0;fontFamily=Helvetica;fontSize=12;fontColor=default;" edge="1" parent="1" source="88NbN212qp_rHV_D2FG4-19" target="QKR319431u4QrgoCeDAc-61">
          <mxGeometry width="50" height="50" relative="1" as="geometry">
            <mxPoint x="-95" y="120" as="sourcePoint" />
            <mxPoint x="-125" y="135" as="targetPoint" />
          </mxGeometry>
        </mxCell>
      </root>
    </mxGraphModel>
  </diagram>
</mxfile>
